<svg xmlns="http://www.w3.org/2000/svg" xmlns:xlink="http://www.w3.org/1999/xlink" xmlns:lucid="lucid" width="920" height="332.34"><g transform="translate(-260 -154.08195020746888)" lucid:page-tab-id="0_0"><path d="M280 236.5c0-3.3 2.7-6 6-6h219.72c3.32 0 6 2.7 6 6V404c0 3.3-2.68 6-6 6H286c-3.3 0-6-2.7-6-6z" stroke="#3a414a" fill="#fff"/><use xlink:href="#a" transform="matrix(1,0,0,1,292,242.49896265560164) translate(60.20370370370371 81.15277777777777)"/><path d="M580.18 320.75h-67.46v-1h67.46zm128.45 0h-51.56v-1h51.56z" stroke="#3a414a" stroke-width=".05" fill="#3a414a"/><path d="M512.74 320.75h-.52v-1h.52z" fill="#3a414a"/><path d="M512.76 320.77h-.56v-1.04h.56zm-.5-1v.96h.45v-.96z" stroke="#3a414a" stroke-width=".05" fill="#3a414a"/><path d="M723.4 320.25l-14.27 4.64v-9.3z" fill="#3a414a"/><path d="M725.02 320.25l-16.4 5.32v-10.64zm-15.4 3.95l12.16-3.95-12.15-3.95z" stroke="#3a414a" stroke-width=".05" fill="#3a414a"/><use xlink:href="#b" transform="matrix(1,0,0,1,580.1762452452107,309.5833333333333) translate(0 14.222222222222221)"/><path d="M725.52 236.5c0-3.3 2.68-6 6-6h219.72c3.32 0 6 2.7 6 6V404c0 3.3-2.68 6-6 6H731.52c-3.32 0-6-2.7-6-6z" stroke="#3a414a" fill="#fff"/><use xlink:href="#c" transform="matrix(1,0,0,1,737.5172413793103,242.49896265560164) translate(50.543209876543216 81.15277777777777)"/><use xlink:href="#d" transform="matrix(1,0,0,1,737.5172413793103,242.49896265560164) translate(145.1111111111111 81.15277777777777)"/><path d="M841.38 213.62v-47.54c0-3.3 2.7-6 6-6h234.2c3.32 0 6 2.7 6 6v33.5" stroke="#3a414a" fill="none"/><path d="M841.38 228.38l-4.64-14.26H846z" stroke="#3a414a" fill="#3a414a"/><path d="M1088.1 200.08h-1v-.5h1z" stroke="#3a414a" stroke-width=".05" fill="#3a414a"/><path d="M1087.6 456.8v17.62c0 3.3-2.7 6-6 6H876.26c-3.32 0-6-2.7-6-6V411" stroke="#3a414a" fill="none"/><path d="M1087.6 442.04l4.62 14.26h-9.27z" stroke="#3a414a" fill="#3a414a"/><path d="M870.77 411h-1v-.5h1z" stroke="#3a414a" stroke-width=".05" fill="#3a414a"/><path d="M1087.6 291.33v57.84" stroke="#3a414a" fill="none"/><path d="M1088.1 291.35h-1v-.52h1zM1088.1 349.67h-1v-.52h1z" stroke="#3a414a" stroke-width=".05" fill="#3a414a"/><path d="M1015.17 356.17c0-3.32 2.7-6 6-6H1154c3.3 0 6 2.68 6 6v77.75c0 3.3-2.7 6-6 6h-132.83c-3.3 0-6-2.7-6-6z" stroke="#3a414a" fill="#fff"/><use xlink:href="#e" transform="matrix(1,0,0,1,1027.1724137931033,362.1670124481328) translate(17.734567901234584 14.222222222222221)"/><use xlink:href="#f" transform="matrix(1,0,0,1,1027.1724137931033,362.1670124481328) translate(93.38888888888887 14.222222222222221)"/><use xlink:href="#g" transform="matrix(1,0,0,1,1027.1724137931033,362.1670124481328) translate(10.697530864197546 35.55555555555556)"/><use xlink:href="#h" transform="matrix(1,0,0,1,1027.1724137931033,362.1670124481328) translate(84.67283950617283 35.55555555555556)"/><use xlink:href="#i" transform="matrix(1,0,0,1,1027.1724137931033,362.1670124481328) translate(1.8333333333333428 56.888888888888886)"/><use xlink:href="#j" transform="matrix(1,0,0,1,1027.1724137931033,362.1670124481328) translate(41.29012345679012 56.888888888888886)"/><use xlink:href="#k" transform="matrix(1,0,0,1,1027.1724137931033,362.1670124481328) translate(107.31481481481481 56.888888888888886)"/><path d="M1015.17 206.58c0-3.3 2.7-6 6-6H1154c3.3 0 6 2.7 6 6v77.75c0 3.32-2.7 6-6 6h-132.83c-3.3 0-6-2.68-6-6z" stroke="#3a414a" fill="#fff"/><g><use xlink:href="#l" transform="matrix(1,0,0,1,1027.1724137931033,212.58195020746888) translate(17.734567901234584 14.222222222222218)"/><use xlink:href="#m" transform="matrix(1,0,0,1,1027.1724137931033,212.58195020746888) translate(93.38888888888887 14.222222222222218)"/><use xlink:href="#n" transform="matrix(1,0,0,1,1027.1724137931033,212.58195020746888) translate(10.697530864197546 35.55555555555555)"/><use xlink:href="#h" transform="matrix(1,0,0,1,1027.1724137931033,212.58195020746888) translate(84.67283950617283 35.55555555555555)"/><use xlink:href="#i" transform="matrix(1,0,0,1,1027.1724137931033,212.58195020746888) translate(1.8333333333333428 56.88888888888888)"/><use xlink:href="#j" transform="matrix(1,0,0,1,1027.1724137931033,212.58195020746888) translate(41.29012345679012 56.88888888888888)"/><use xlink:href="#o" transform="matrix(1,0,0,1,1027.1724137931033,212.58195020746888) translate(107.31481481481481 56.88888888888888)"/></g><defs><path fill="#3a414a" d="M212-179c-10-28-35-45-73-45-59 0-87 40-87 99 0 60 29 101 89 101 43 0 62-24 78-52l27 14C228-24 195 4 139 4 59 4 22-46 18-125c-6-104 99-153 187-111 19 9 31 26 39 46" id="p"/><path fill="#3a414a" d="M30 0v-248h33v221h125V0H30" id="q"/><path fill="#3a414a" d="M205 0l-28-72H64L36 0H1l101-248h38L239 0h-34zm-38-99l-47-123c-12 45-31 82-46 123h93" id="r"/><path fill="#3a414a" d="M185-189c-5-48-123-54-124 2 14 75 158 14 163 119 3 78-121 87-175 55-17-10-28-26-33-46l33-7c5 56 141 63 141-1 0-78-155-14-162-118-5-82 145-84 179-34 5 7 8 16 11 25" id="s"/><path fill="#3a414a" d="M30 0v-248h187v28H63v79h144v27H63v87h162V0H30" id="t"/><g id="a"><use transform="matrix(0.06172839506172839,0,0,0.06172839506172839,0,0)" xlink:href="#p"/><use transform="matrix(0.06172839506172839,0,0,0.06172839506172839,15.987654320987653,0)" xlink:href="#q"/><use transform="matrix(0.06172839506172839,0,0,0.06172839506172839,28.333333333333332,0)" xlink:href="#r"/><use transform="matrix(0.06172839506172839,0,0,0.06172839506172839,43.148148148148145,0)" xlink:href="#s"/><use transform="matrix(0.06172839506172839,0,0,0.06172839506172839,57.96296296296296,0)" xlink:href="#s"/><use transform="matrix(0.06172839506172839,0,0,0.06172839506172839,72.77777777777777,0)" xlink:href="#t"/></g><path fill="#333" d="M24 0v-248h52V0H24" id="u"/><path fill="#333" d="M135-194c87-1 58 113 63 194h-50c-7-57 23-157-34-157-59 0-34 97-39 157H25l-1-190h47c2 12-1 28 3 38 12-26 28-41 61-42" id="v"/><path fill="#333" d="M137-138c1-29-70-34-71-4 15 46 118 7 119 86 1 83-164 76-172 9l43-7c4 19 20 25 44 25 33 8 57-30 24-41C81-84 22-81 20-136c-2-80 154-74 161-7" id="w"/><path fill="#333" d="M115-3C79 11 28 4 28-45v-112H4v-33h27l15-45h31v45h36v33H77v99c-1 23 16 31 38 25v30" id="x"/><path fill="#333" d="M132-34C116-15 102 5 68 4 31 3 10-16 10-54c-1-60 55-63 116-61 1-26-3-47-28-47-18 1-26 9-28 27l-52-2c7-38 36-58 82-57s74 22 75 68l1 82c-1 14 12 18 25 15v27c-30 8-71 5-69-32zm-48 3c29 0 43-24 42-57-32 0-66-3-65 30 0 17 8 27 23 27zm81-182v5h-28c-13-11-23-24-37-34l-37 34H35c9-26 32-39 45-61h41" id="y"/><path fill="#333" d="M190-63c-7 42-38 67-86 67-59 0-84-38-90-98-12-110 154-137 174-36l-49 2c-2-19-15-32-35-32-30 0-35 28-38 64-6 74 65 87 74 30" id="z"/><path fill="#333" d="M25-224v-37h50v37H25zM25 0v-190h50V0H25" id="A"/><path fill="#333" d="M133-34C117-15 103 5 69 4 32 3 11-16 11-54c-1-60 55-63 116-61 1-26-3-47-28-47-18 1-26 9-28 27l-52-2c7-38 36-58 82-57s74 22 75 68l1 82c-1 14 12 18 25 15v27c-30 8-71 5-69-32zm-48 3c29 0 43-24 42-57-32 0-66-3-65 30 0 17 8 27 23 27" id="B"/><g id="b"><use transform="matrix(0.049382716049382706,0,0,0.049382716049382706,0,0)" xlink:href="#u"/><use transform="matrix(0.049382716049382706,0,0,0.049382716049382706,4.93827160493827,0)" xlink:href="#v"/><use transform="matrix(0.049382716049382706,0,0,0.049382716049382706,15.753086419753084,0)" xlink:href="#w"/><use transform="matrix(0.049382716049382706,0,0,0.049382716049382706,25.629629629629626,0)" xlink:href="#x"/><use transform="matrix(0.049382716049382706,0,0,0.049382716049382706,31.506172839506167,0)" xlink:href="#y"/><use transform="matrix(0.049382716049382706,0,0,0.049382716049382706,41.38271604938271,0)" xlink:href="#v"/><use transform="matrix(0.049382716049382706,0,0,0.049382716049382706,52.19753086419752,0)" xlink:href="#z"/><use transform="matrix(0.049382716049382706,0,0,0.049382716049382706,62.07407407407406,0)" xlink:href="#A"/><use transform="matrix(0.049382716049382706,0,0,0.049382716049382706,67.01234567901233,0)" xlink:href="#B"/></g><path fill="#3a414a" d="M140-251c81 0 123 46 123 126C263-46 219 4 140 4 59 4 17-45 17-125s42-126 123-126zm0 227c63 0 89-41 89-101s-29-99-89-99c-61 0-89 39-89 99S79-25 140-24" id="C"/><path fill="#3a414a" d="M160-131c35 5 61 23 61 61C221 17 115-2 30 0v-248c76 3 177-17 177 60 0 33-19 50-47 57zm-97-11c50-1 110 9 110-42 0-47-63-36-110-37v79zm0 115c55-2 124 14 124-45 0-56-70-42-124-44v89" id="D"/><path fill="#3a414a" d="M153-248C145-148 188 4 80 4 36 3 13-21 6-62l32-5c4 25 16 42 43 43 27 0 39-20 39-49v-147H72v-28h81" id="E"/><path fill="#3a414a" d="M127-220V0H93v-220H8v-28h204v28h-85" id="F"/><g id="c"><use transform="matrix(0.06172839506172839,0,0,0.06172839506172839,0,0)" xlink:href="#C"/><use transform="matrix(0.06172839506172839,0,0,0.06172839506172839,17.28395061728395,0)" xlink:href="#D"/><use transform="matrix(0.06172839506172839,0,0,0.06172839506172839,32.09876543209876,0)" xlink:href="#E"/><use transform="matrix(0.06172839506172839,0,0,0.06172839506172839,43.20987654320987,0)" xlink:href="#t"/><use transform="matrix(0.06172839506172839,0,0,0.06172839506172839,58.02469135802468,0)" xlink:href="#F"/><use transform="matrix(0.06172839506172839,0,0,0.06172839506172839,71.1111111111111,0)" xlink:href="#C"/></g><path fill="#3a414a" d="M27 0v-27h64v-190l-56 39v-29l58-41h29v221h61V0H27" id="G"/><use transform="matrix(0.06172839506172839,0,0,0.06172839506172839,0,0)" xlink:href="#G" id="d"/><g id="e"><use transform="matrix(0.049382716049382706,0,0,0.049382716049382706,0,0)" xlink:href="#C"/><use transform="matrix(0.049382716049382706,0,0,0.049382716049382706,13.827160493827158,0)" xlink:href="#D"/><use transform="matrix(0.049382716049382706,0,0,0.049382716049382706,25.679012345679006,0)" xlink:href="#E"/><use transform="matrix(0.049382716049382706,0,0,0.049382716049382706,34.56790123456789,0)" xlink:href="#t"/><use transform="matrix(0.049382716049382706,0,0,0.049382716049382706,46.41975308641974,0)" xlink:href="#F"/><use transform="matrix(0.049382716049382706,0,0,0.049382716049382706,56.888888888888864,0)" xlink:href="#C"/></g><use transform="matrix(0.049382716049382706,0,0,0.049382716049382706,0,0)" xlink:href="#G" id="f"/><path fill="#3a414a" d="M141-36C126-15 110 5 73 4 37 3 15-17 15-53c-1-64 63-63 125-63 3-35-9-54-41-54-24 1-41 7-42 31l-33-3c5-37 33-52 76-52 45 0 72 20 72 64v82c-1 20 7 32 28 27v20c-31 9-61-2-59-35zM48-53c0 20 12 33 32 33 41-3 63-29 60-74-43 2-92-5-92 41" id="H"/><path fill="#3a414a" d="M59-47c-2 24 18 29 38 22v24C64 9 27 4 27-40v-127H5v-23h24l9-43h21v43h35v23H59v120" id="I"/><path fill="#3a414a" d="M114-163C36-179 61-72 57 0H25l-1-190h30c1 12-1 29 2 39 6-27 23-49 58-41v29" id="J"/><path fill="#3a414a" d="M24-231v-30h32v30H24zM24 0v-190h32V0H24" id="K"/><path fill="#3a414a" d="M115-194c53 0 69 39 70 98 0 66-23 100-70 100C84 3 66-7 56-30L54 0H23l1-261h32v101c10-23 28-34 59-34zm-8 174c40 0 45-34 45-75 0-40-5-75-45-74-42 0-51 32-51 76 0 43 10 73 51 73" id="L"/><path fill="#3a414a" d="M84 4C-5 8 30-112 23-190h32v120c0 31 7 50 39 49 72-2 45-101 50-169h31l1 190h-30c-1-10 1-25-2-33-11 22-28 36-60 37" id="M"/><path fill="#3a414a" d="M34 0v-190h32V0H34zM24-211c8-23 27-35 38-54h36v5l-58 49H24" id="N"/><path fill="#3a414a" d="M85-194c31 0 48 13 60 33l-1-100h32l1 261h-30c-2-10 0-23-3-31C134-8 116 4 85 4 32 4 16-35 15-94c0-66 23-100 70-100zm9 24c-40 0-46 34-46 75 0 40 6 74 45 74 42 0 51-32 51-76 0-42-9-74-50-73" id="O"/><path fill="#3a414a" d="M100-194c62-1 85 37 85 99 1 63-27 99-86 99S16-35 15-95c0-66 28-99 85-99zM99-20c44 1 53-31 53-75 0-43-8-75-51-75s-53 32-53 75 10 74 51 75" id="P"/><g id="g"><use transform="matrix(0.049382716049382706,0,0,0.049382716049382706,0,0)" xlink:href="#H"/><use transform="matrix(0.049382716049382706,0,0,0.049382716049382706,9.87654320987654,0)" xlink:href="#I"/><use transform="matrix(0.049382716049382706,0,0,0.049382716049382706,14.814814814814811,0)" xlink:href="#J"/><use transform="matrix(0.049382716049382706,0,0,0.049382716049382706,20.691358024691354,0)" xlink:href="#K"/><use transform="matrix(0.049382716049382706,0,0,0.049382716049382706,24.592592592592588,0)" xlink:href="#L"/><use transform="matrix(0.049382716049382706,0,0,0.049382716049382706,34.469135802469125,0)" xlink:href="#M"/><use transform="matrix(0.049382716049382706,0,0,0.049382716049382706,44.34567901234567,0)" xlink:href="#N"/><use transform="matrix(0.049382716049382706,0,0,0.049382716049382706,49.28395061728394,0)" xlink:href="#O"/><use transform="matrix(0.049382716049382706,0,0,0.049382716049382706,59.16049382716048,0)" xlink:href="#P"/></g><path fill="#3a414a" d="M115-194c55 1 70 41 70 98S169 2 115 4C84 4 66-9 55-30l1 105H24l-1-265h31l2 30c10-21 28-34 59-34zm-8 174c40 0 45-34 45-75s-6-73-45-74c-42 0-51 32-51 76 0 43 10 73 51 73" id="Q"/><g id="h"><use transform="matrix(0.049382716049382706,0,0,0.049382716049382706,0,0)" xlink:href="#Q"/><use transform="matrix(0.049382716049382706,0,0,0.049382716049382706,9.87654320987654,0)" xlink:href="#P"/><use transform="matrix(0.049382716049382706,0,0,0.049382716049382706,19.75308641975308,0)" xlink:href="#J"/></g><path fill="#3a414a" d="M210-169c-67 3-38 105-44 169h-31v-121c0-29-5-50-35-48C34-165 62-65 56 0H25l-1-190h30c1 10-1 24 2 32 10-44 99-50 107 0 11-21 27-35 58-36 85-2 47 119 55 194h-31v-121c0-29-5-49-35-48" id="R"/><g id="i"><use transform="matrix(0.049382716049382706,0,0,0.049382716049382706,0,0)" xlink:href="#M"/><use transform="matrix(0.049382716049382706,0,0,0.049382716049382706,9.87654320987654,0)" xlink:href="#R"/><use transform="matrix(0.049382716049382706,0,0,0.049382716049382706,24.641975308641968,0)" xlink:href="#H"/></g><path fill="#3a414a" d="M108 0H70L1-190h34L89-25l56-165h34" id="S"/><path fill="#3a414a" d="M141-36C126-15 110 5 73 4 37 3 15-17 15-53c-1-64 63-63 125-63 3-35-9-54-41-54-24 1-41 7-42 31l-33-3c5-37 33-52 76-52 45 0 72 20 72 64v82c-1 20 7 32 28 27v20c-31 9-61-2-59-35zM48-53c0 20 12 33 32 33 41-3 63-29 60-74-43 2-92-5-92 41zm25-158c8-23 27-35 38-54h36v5l-58 49H73" id="T"/><path fill="#3a414a" d="M100-194c63 0 86 42 84 106H49c0 40 14 67 53 68 26 1 43-12 49-29l28 8c-11 28-37 45-77 45C44 4 14-33 15-96c1-61 26-98 85-98zm52 81c6-60-76-77-97-28-3 7-6 17-6 28h103" id="U"/><path fill="#3a414a" d="M24 0v-261h32V0H24" id="V"/><g id="j"><use transform="matrix(0.049382716049382706,0,0,0.049382716049382706,0,0)" xlink:href="#S"/><use transform="matrix(0.049382716049382706,0,0,0.049382716049382706,8.888888888888888,0)" xlink:href="#H"/><use transform="matrix(0.049382716049382706,0,0,0.049382716049382706,18.76543209876543,0)" xlink:href="#J"/><use transform="matrix(0.049382716049382706,0,0,0.049382716049382706,24.64197530864197,0)" xlink:href="#K"/><use transform="matrix(0.049382716049382706,0,0,0.049382716049382706,28.543209876543205,0)" xlink:href="#T"/><use transform="matrix(0.049382716049382706,0,0,0.049382716049382706,38.419753086419746,0)" xlink:href="#S"/><use transform="matrix(0.049382716049382706,0,0,0.049382716049382706,47.30864197530863,0)" xlink:href="#U"/><use transform="matrix(0.049382716049382706,0,0,0.049382716049382706,57.185185185185176,0)" xlink:href="#V"/></g><path fill="#3a414a" d="M195 0l-74-108L45 0H8l94-129-87-119h37l69 98 67-98h37l-84 118L233 0h-38" id="W"/><use transform="matrix(0.049382716049382706,0,0,0.049382716049382706,0,0)" xlink:href="#W" id="k"/><g id="l"><use transform="matrix(0.0493827160493827,0,0,0.0493827160493827,0,0)" xlink:href="#C"/><use transform="matrix(0.0493827160493827,0,0,0.0493827160493827,13.827160493827156,0)" xlink:href="#D"/><use transform="matrix(0.0493827160493827,0,0,0.0493827160493827,25.679012345679002,0)" xlink:href="#E"/><use transform="matrix(0.0493827160493827,0,0,0.0493827160493827,34.56790123456789,0)" xlink:href="#t"/><use transform="matrix(0.0493827160493827,0,0,0.0493827160493827,46.41975308641974,0)" xlink:href="#F"/><use transform="matrix(0.0493827160493827,0,0,0.0493827160493827,56.88888888888887,0)" xlink:href="#C"/></g><use transform="matrix(0.0493827160493827,0,0,0.0493827160493827,0,0)" xlink:href="#G" id="m"/><g id="n"><use transform="matrix(0.049382716049382706,0,0,0.049382716049382706,0,0)" xlink:href="#H"/><use transform="matrix(0.049382716049382706,0,0,0.049382716049382706,9.87654320987654,0)" xlink:href="#I"/><use transform="matrix(0.049382716049382706,0,0,0.049382716049382706,14.814814814814811,0)" xlink:href="#J"/><use transform="matrix(0.049382716049382706,0,0,0.049382716049382706,20.691358024691354,0)" xlink:href="#K"/><use transform="matrix(0.049382716049382706,0,0,0.049382716049382706,24.592592592592588,0)" xlink:href="#L"/><use transform="matrix(0.049382716049382706,0,0,0.049382716049382706,34.469135802469125,0)" xlink:href="#M"/><use transform="matrix(0.049382716049382706,0,0,0.049382716049382706,44.34567901234567,0)" xlink:href="#N"/><use transform="matrix(0.049382716049382706,0,0,0.049382716049382706,49.28395061728394,0)" xlink:href="#O"/><use transform="matrix(0.049382716049382706,0,0,0.049382716049382706,59.16049382716048,0)" xlink:href="#P"/></g><path fill="#3a414a" d="M137-103V0h-34v-103L8-248h37l75 118 75-118h37" id="X"/><use transform="matrix(0.049382716049382706,0,0,0.049382716049382706,0,0)" xlink:href="#X" id="o"/></defs></g></svg>